# xmcd CD database file
#
# Track frame offsets:
#	150
#	14444
#	40106
#	60754
#	81902
#	103915
#	123503
#	144457
#
# Disc length: 2189 seconds
#
# Revision: 0
# Processed by: cddbd v1.5.1PL2 Copyright (c) Steve Scherf et al.
# Submitted via: CDex 1.51
#
DISCID=63088b08
DTITLE=La Banda de la Havana - Best of Salsa
DYEAR=2006
DGENRE=Salsa
TTITLE0=La Bamba
TTITLE1=Guantanamera
TTITLE2=Ahora y sempre
TTITLE3=Acabando Commigo
TTITLE4=Nueva era
TTITLE5=El Tiburon
TTITLE6=Sonero de Ayer
TTITLE7=Mentirosa
EXTD=YEAR: 2006
EXTT0=
EXTT1=
EXTT2=
EXTT3=
EXTT4=
EXTT5=
EXTT6=
EXTT7=
PLAYORDER=
